<?xml version="1.0" encoding="utf-8"?>
<!-- Generator: Adobe Illustrator 16.0.3, SVG Export Plug-In . SVG Version: 6.00 Build 0)  -->
<!DOCTYPE svg PUBLIC "-//W3C//DTD SVG 1.1//EN" "http://www.w3.org/Graphics/SVG/1.1/DTD/svg11.dtd">
<svg version="1.1" id="Layer_1" xmlns="http://www.w3.org/2000/svg" xmlns:xlink="http://www.w3.org/1999/xlink" x="0px" y="0px"
	 width="23px" height="46px" viewBox="0 0 23 46" enable-background="new 0 0 23 46" xml:space="preserve">
<path fill="#0F4870" d="M19.621,3.387c-4.482-4.482-11.75-4.482-16.23,0c-4.482,4.482-4.482,11.75,0,16.229
	c4.481,4.482,11.748,4.482,16.23,0C24.102,15.137,24.103,7.869,19.621,3.387 M14.817,16.801c-0.182,0.184-0.482,0.184-0.662,0
	l-1.657-1.656l-0.663-0.662l-0.331-0.332l-0.331,0.332l-0.663,0.662l-1.654,1.656c-0.184,0.184-0.481,0.184-0.663,0l-1.987-1.988
	c-0.183-0.18-0.183-0.479,0-0.662l1.656-1.655l0.662-0.663l0.333-0.332L8.524,11.17l-0.662-0.662L6.207,8.852
	c-0.183-0.183-0.183-0.481,0-0.663l1.987-1.987c0.182-0.183,0.477-0.183,0.663,0l1.654,1.656l0.663,0.662l0.331,0.331l0.331-0.331
	l0.663-0.662l1.657-1.656c0.182-0.183,0.48-0.183,0.662,0l1.986,1.987c0.184,0.182,0.184,0.479,0,0.663l-1.655,1.656l-0.664,0.662
	l-0.329,0.331l0.329,0.332l0.664,0.663l1.655,1.655c0.184,0.184,0.184,0.482,0,0.662L14.817,16.801z"/>
<path fill="#0E3551" d="M19.621,26.361c-4.482-4.482-11.75-4.482-16.23,0c-4.482,4.482-4.482,11.75,0,16.229
	c4.481,4.482,11.748,4.482,16.23,0C24.102,38.111,24.103,30.844,19.621,26.361 M14.817,39.775c-0.182,0.184-0.482,0.184-0.662,0
	l-1.657-1.656l-0.663-0.662l-0.331-0.332l-0.331,0.332l-0.663,0.662l-1.654,1.656c-0.184,0.184-0.481,0.184-0.663,0l-1.987-1.988
	c-0.183-0.18-0.183-0.479,0-0.662l1.656-1.654l0.662-0.664l0.333-0.331l-0.333-0.331l-0.662-0.662l-1.656-1.656
	c-0.183-0.183-0.183-0.48,0-0.662l1.987-1.986c0.182-0.184,0.477-0.184,0.663,0l1.654,1.656l0.663,0.662l0.331,0.33l0.331-0.33
	l0.663-0.662l1.657-1.656c0.182-0.184,0.48-0.184,0.662,0l1.986,1.986c0.184,0.182,0.184,0.479,0,0.662l-1.655,1.656l-0.664,0.662
	l-0.329,0.331l0.329,0.331l0.664,0.664l1.655,1.654c0.184,0.184,0.184,0.482,0,0.662L14.817,39.775z"/>
</svg>
