<?xml version="1.0" encoding="utf-8"?>
<!-- Generator: Adobe Illustrator 16.0.3, SVG Export Plug-In . SVG Version: 6.00 Build 0)  -->
<!DOCTYPE svg PUBLIC "-//W3C//DTD SVG 1.1//EN" "http://www.w3.org/Graphics/SVG/1.1/DTD/svg11.dtd">
<svg version="1.1" id="Layer_1" xmlns="http://www.w3.org/2000/svg" xmlns:xlink="http://www.w3.org/1999/xlink" x="0px" y="0px"
	 width="23px" height="46px" viewBox="0 0 23 46" enable-background="new 0 0 23 46" xml:space="preserve">
<path fill="#0F4870" d="M18.061,6.56c-0.104-0.384-0.228-0.767-0.387-1.144c-0.158-0.379-0.346-0.734-0.547-1.078l-2.52,0.387
	c-0.381-0.491-0.819-0.925-1.304-1.293l0.363-2.521C12.963,0.514,12.211,0.207,11.431,0L9.927,2.054
	C9.322,1.978,8.707,1.98,8.09,2.065l-1.528-2.04C6.177,0.13,5.793,0.253,5.416,0.412c-0.378,0.16-0.733,0.347-1.079,0.547
	l0.388,2.52C4.233,3.86,3.801,4.297,3.435,4.782L0.912,4.42C0.514,5.122,0.207,5.874,0,6.655l2.055,1.504
	c-0.077,0.605-0.075,1.22,0.01,1.838l-2.039,1.528c0.104,0.385,0.228,0.768,0.387,1.145c0.158,0.379,0.346,0.734,0.547,1.079
	l2.519-0.388c0.383,0.492,0.821,0.926,1.307,1.292l-0.362,2.522c0.703,0.397,1.452,0.703,2.234,0.909l1.505-2.053
	c0.603,0.076,1.221,0.073,1.836-0.011l1.53,2.038c0.384-0.103,0.765-0.228,1.143-0.387c0.377-0.157,0.734-0.345,1.079-0.546
	l-0.388-2.52c0.492-0.381,0.926-0.82,1.292-1.305l2.523,0.362c0.396-0.705,0.703-1.454,0.909-2.235l-2.055-1.506
	c0.077-0.602,0.073-1.217-0.01-1.835L18.061,6.56z M10.287,12.112c-1.694,0.712-3.646-0.084-4.359-1.778
	C5.217,8.64,6.014,6.688,7.707,5.975C9.4,5.264,11.353,6.06,12.065,7.753C12.777,9.449,11.979,11.4,10.287,12.112"/>
<path fill="#0F4870" d="M18.375,22.903c-0.195,0-0.386-0.018-0.573-0.042l-0.288-1.18l-0.046-0.013
	c-0.251-0.072-0.493-0.176-0.722-0.302l-0.04-0.022l-1.041,0.617c-0.326-0.257-0.585-0.522-0.81-0.815l0.628-1.035l-0.021-0.04
	c-0.128-0.232-0.228-0.476-0.298-0.728l-0.01-0.042l-1.177-0.301c-0.024-0.216-0.039-0.394-0.039-0.575
	c0.001-0.195,0.019-0.385,0.045-0.572l1.179-0.29l0.013-0.043c0.07-0.248,0.171-0.492,0.303-0.724l0.021-0.039l-0.618-1.042
	c0.258-0.323,0.521-0.582,0.818-0.81l1.035,0.628l0.039-0.021c0.231-0.127,0.476-0.227,0.726-0.294l0.044-0.013l0.299-1.176
	c0.216-0.026,0.393-0.04,0.573-0.039c0.197,0.001,0.388,0.019,0.576,0.045l0.288,1.179l0.045,0.012
	c0.249,0.071,0.493,0.173,0.722,0.302l0.041,0.022l1.039-0.619c0.325,0.261,0.586,0.524,0.811,0.816l-0.629,1.037l0.023,0.039
	c0.122,0.229,0.224,0.473,0.295,0.727l0.013,0.044l1.175,0.299c0.026,0.218,0.04,0.395,0.039,0.574
	c-0.002,0.196-0.019,0.39-0.044,0.577l-1.178,0.287l-0.012,0.043c-0.074,0.252-0.178,0.496-0.304,0.723l-0.023,0.04l0.618,1.042
	c-0.26,0.324-0.522,0.583-0.814,0.81l-1.035-0.629l-0.041,0.021c-0.227,0.125-0.472,0.226-0.727,0.297l-0.045,0.012l-0.298,1.177
	C18.733,22.892,18.558,22.904,18.375,22.903 M18.448,17.003c-0.796-0.004-1.446,0.641-1.45,1.438
	c-0.004,0.799,0.641,1.45,1.438,1.453c0.8,0.004,1.449-0.643,1.453-1.44C19.893,17.656,19.248,17.007,18.448,17.003"/>
<path fill="#0E3551" d="M18.061,29.584c-0.104-0.385-0.228-0.768-0.387-1.145c-0.158-0.379-0.346-0.734-0.547-1.078l-2.52,0.388
	c-0.381-0.491-0.819-0.925-1.304-1.293l0.363-2.521c-0.704-0.398-1.456-0.705-2.236-0.912l-1.504,2.055
	c-0.604-0.077-1.22-0.074-1.837,0.01l-1.528-2.039c-0.385,0.105-0.769,0.229-1.146,0.387c-0.378,0.16-0.733,0.348-1.079,0.547
	l0.388,2.52c-0.491,0.381-0.924,0.818-1.29,1.304l-2.522-0.362C0.514,28.146,0.207,28.896,0,29.679l2.055,1.504
	c-0.077,0.604-0.075,1.22,0.01,1.839l-2.039,1.527c0.104,0.385,0.228,0.768,0.387,1.145c0.158,0.379,0.346,0.734,0.547,1.079
	l2.519-0.388c0.383,0.492,0.821,0.926,1.307,1.292l-0.362,2.522c0.703,0.397,1.452,0.703,2.234,0.909l1.505-2.053
	c0.603,0.076,1.221,0.073,1.836-0.011l1.53,2.038c0.384-0.103,0.765-0.228,1.143-0.387c0.377-0.157,0.734-0.345,1.079-0.546
	l-0.388-2.52c0.492-0.381,0.926-0.82,1.292-1.305l2.523,0.362c0.396-0.704,0.703-1.454,0.909-2.235l-2.055-1.506
	c0.077-0.602,0.073-1.217-0.01-1.835L18.061,29.584z M10.287,35.135c-1.694,0.713-3.646-0.084-4.359-1.777
	c-0.711-1.694,0.086-3.646,1.779-4.359c1.693-0.711,3.646,0.085,4.358,1.779C12.777,32.473,11.979,34.424,10.287,35.135"/>
<path fill="#0E3551" d="M18.375,45.927c-0.195,0-0.386-0.018-0.573-0.042l-0.288-1.18l-0.046-0.013
	c-0.251-0.072-0.493-0.176-0.722-0.302l-0.04-0.022l-1.041,0.617c-0.326-0.257-0.585-0.522-0.81-0.815l0.628-1.035l-0.021-0.04
	c-0.128-0.232-0.228-0.476-0.298-0.728l-0.01-0.042l-1.177-0.301c-0.024-0.216-0.039-0.394-0.039-0.575
	c0.001-0.195,0.019-0.385,0.045-0.572l1.179-0.29l0.013-0.043c0.07-0.248,0.171-0.492,0.303-0.724l0.021-0.039l-0.618-1.042
	c0.258-0.323,0.521-0.582,0.818-0.81l1.035,0.628l0.039-0.021c0.231-0.127,0.476-0.227,0.726-0.294l0.044-0.013l0.299-1.176
	c0.216-0.026,0.393-0.04,0.573-0.039c0.197,0.001,0.388,0.019,0.576,0.045l0.288,1.179l0.045,0.012
	c0.249,0.071,0.493,0.173,0.722,0.302l0.041,0.022l1.039-0.619c0.325,0.261,0.586,0.524,0.811,0.816l-0.629,1.037l0.023,0.039
	c0.122,0.229,0.224,0.473,0.295,0.727l0.013,0.044l1.175,0.299c0.026,0.218,0.04,0.395,0.039,0.574
	c-0.002,0.196-0.019,0.39-0.044,0.577l-1.178,0.287l-0.012,0.043c-0.074,0.252-0.178,0.496-0.304,0.723l-0.023,0.04l0.618,1.042
	c-0.26,0.324-0.522,0.583-0.814,0.81l-1.035-0.629l-0.041,0.021c-0.227,0.125-0.472,0.226-0.727,0.297l-0.045,0.012l-0.298,1.177
	C18.733,45.915,18.558,45.928,18.375,45.927 M18.448,40.026c-0.796-0.004-1.446,0.641-1.45,1.438
	c-0.004,0.799,0.641,1.45,1.438,1.453c0.8,0.004,1.449-0.643,1.453-1.44C19.893,40.68,19.248,40.03,18.448,40.026"/>
</svg>
