<?xml version="1.0" encoding="utf-8"?>
<!-- Generator: Adobe Illustrator 16.0.3, SVG Export Plug-In . SVG Version: 6.00 Build 0)  -->
<!DOCTYPE svg PUBLIC "-//W3C//DTD SVG 1.1//EN" "http://www.w3.org/Graphics/SVG/1.1/DTD/svg11.dtd">
<svg version="1.1" id="Layer_1" xmlns="http://www.w3.org/2000/svg" xmlns:xlink="http://www.w3.org/1999/xlink" x="0px" y="0px"
	 width="26px" height="26px" viewBox="0 0 26 26" enable-background="new 0 0 26 26" xml:space="preserve">
<g>
	<g opacity="0.33">
		<path d="M21.928,23.992L3,24V3h19v20.992 M18.031,5H7v8h11.031l-0.023-7.781 M18.031,14H7v8.031h11.031L18.008,15 M6.031,5H4
			v1.969h2.031V6 M6.031,8H4v1.969h2.031V9 M6.031,11H4v1.969h2.031V12 M6.031,14H4v1.969h2.031V15 M6.031,17H4v1.969h2.031V18
			 M6.031,20H4v1.969h2.031V21 M21,5h-1.969v1.969H21V6 M21,8h-1.969v1.969H21V9 M21,11h-1.969v1.969H21V12 M21,14h-1.969v1.969H21
			V15 M21,17h-1.969v1.969H21V18 M21,20h-1.969v1.969H21V21"/>
	</g>
	<g>
		<path fill="#CCCCCC" d="M21.928,22.992L3,23V2h19v20.992 M18.031,4H7v8h11.031l-0.023-7.781 M18.031,13H7v8.031h11.031L18.008,14
			 M6.031,4H4v1.969h2.031V5 M6.031,7H4v1.969h2.031V8 M6.031,10H4v1.969h2.031V11 M6.031,13H4v1.969h2.031V14 M6.031,16H4v1.969
			h2.031V17 M6.031,19H4v1.969h2.031V20 M21,4h-1.969v1.969H21V5 M21,7h-1.969v1.969H21V8 M21,10h-1.969v1.969H21V11 M21,13h-1.969
			v1.969H21V14 M21,16h-1.969v1.969H21V17 M21,19h-1.969v1.969H21V20"/>
	</g>
</g>
</svg>
