<?xml version="1.0" encoding="utf-8"?>
<!-- Generator: Adobe Illustrator 16.0.3, SVG Export Plug-In . SVG Version: 6.00 Build 0)  -->
<!DOCTYPE svg PUBLIC "-//W3C//DTD SVG 1.1//EN" "http://www.w3.org/Graphics/SVG/1.1/DTD/svg11.dtd">
<svg version="1.1" id="Layer_1" xmlns="http://www.w3.org/2000/svg" xmlns:xlink="http://www.w3.org/1999/xlink" x="0px" y="0px"
	 width="26px" height="26px" viewBox="0 0 26 26" enable-background="new 0 0 26 26" xml:space="preserve">
<g>
	<g opacity="0.4">
		<path d="M22,4v0.455v3.086v12.658l-0.008-0.137c-0.051,0.914-1.113,2.107-2.691,2.633c-1.871,0.621-3.73-0.092-4.152-1.426
			c-0.42-1.328,0.537-2.891,2.41-3.516c0.871-0.287,1.738-0.385,2.461-0.201V8.48L9.992,11.375V21.74L10,22.156
			c-0.051,0.914-1.176,2.09-2.756,2.617c-1.871,0.621-3.729-0.094-4.15-1.426s0.582-2.908,2.457-3.531
			c0.871-0.289,1.738-0.387,2.459-0.203v-8.107V7.918V7.879c0-0.25,0.193-0.508,0.428-0.574l13.148-3.762
			C21.822,3.477,22,3.748,22,4z"/>
	</g>
	<g>
		<path fill="#CCCCCC" d="M22,3v0.455v3.086v12.658l-0.008-0.137c-0.051,0.914-1.113,2.107-2.691,2.633
			c-1.871,0.621-3.73-0.092-4.152-1.426c-0.42-1.328,0.537-2.891,2.41-3.516c0.871-0.287,1.738-0.385,2.461-0.201V7.48L9.992,10.375
			V20.74L10,21.156c-0.051,0.914-1.176,2.09-2.756,2.617c-1.871,0.621-3.729-0.094-4.15-1.426s0.582-2.908,2.457-3.531
			c0.871-0.289,1.738-0.387,2.459-0.203v-8.107V6.918V6.879c0-0.25,0.193-0.508,0.428-0.574l13.148-3.762
			C21.822,2.477,22,2.748,22,3z"/>
	</g>
</g>
</svg>
