<?xml version="1.0" encoding="utf-8"?>
<!-- Generator: Adobe Illustrator 16.0.3, SVG Export Plug-In . SVG Version: 6.00 Build 0)  -->
<!DOCTYPE svg PUBLIC "-//W3C//DTD SVG 1.1//EN" "http://www.w3.org/Graphics/SVG/1.1/DTD/svg11.dtd">
<svg version="1.1" id="Layer_1" xmlns="http://www.w3.org/2000/svg" xmlns:xlink="http://www.w3.org/1999/xlink" x="0px" y="0px"
	 width="26px" height="26px" viewBox="0 0 26 26" enable-background="new 0 0 26 26" xml:space="preserve">
<g>
	<g opacity="0.33">
		<path d="M23,7.002C23,6.451,22.548,6,21.997,6h-9.332l-0.349-1.052C12.141,4.427,11.549,4.001,11,4.001H6
			c-0.549,0-1.143,0.426-1.316,0.947L4.334,6H3.001C2.449,6,2,6.451,2,7v1.999h21V7.002z M23,11H2c-0.551,0-1,0.449-1,1v12
			c0,0.549,0.449,1,1,1h21c0.549,0,1-0.451,1-1V12C24,11.449,23.549,11,23,11z"/>
	</g>
	<g>
		<g>
			<path fill="#CCCCCC" d="M23,6.002C23,5.451,22.548,5,21.997,5h-9.332l-0.349-1.052C12.141,3.427,11.549,3.001,11,3.001H6
				c-0.549,0-1.143,0.426-1.316,0.947L4.334,5H3.001C2.449,5,2,5.451,2,6v1.999h21V6.002z M23,10H2c-0.551,0-1,0.449-1,1v12
				c0,0.549,0.449,1,1,1h21c0.549,0,1-0.451,1-1V11C24,10.449,23.549,10,23,10z"/>
		</g>
	</g>
</g>
</svg>
