<?xml version="1.0" encoding="utf-8"?>
<!-- Generator: Adobe Illustrator 16.0.3, SVG Export Plug-In . SVG Version: 6.00 Build 0)  -->
<!DOCTYPE svg PUBLIC "-//W3C//DTD SVG 1.1//EN" "http://www.w3.org/Graphics/SVG/1.1/DTD/svg11.dtd">
<svg version="1.1" id="Layer_1" xmlns="http://www.w3.org/2000/svg" xmlns:xlink="http://www.w3.org/1999/xlink" x="0px" y="0px"
	 width="26px" height="26px" viewBox="0 0 26 26" enable-background="new 0 0 26 26" xml:space="preserve">
<g>
	<g opacity="0.33">
		<path d="M23.125,5H1.891C1.406,5,1.016,5.391,1.016,5.875v17.236c0,0.482,0.391,0.875,0.875,0.875h21.234
			c0.484,0,0.875-0.393,0.875-0.875V5.875C24,5.391,23.609,5,23.125,5z M21,15.66l-1.523-2.666c0,0-0.973-0.998-1.941-0.998
			s-1.908,0.998-1.908,0.998s-2.635,3.01-3.629,4.002c1.604,0.684,4.029,4.631,2.174,3.453c-1.852-1.178-5.1-2.457-5.1-2.457L4,22V7
			h17V15.66z M5,11c0-1.102,0.896-2.002,1.998-2.002s1.996,0.896,1.996,1.998S8.1,12.992,6.998,12.992S5,12.102,5,11z"/>
	</g>
	<g>
		<path fill="#CCCCCC" d="M23.125,4H1.891C1.406,4,1.016,4.391,1.016,4.875v17.236c0,0.482,0.391,0.875,0.875,0.875h21.234
			c0.484,0,0.875-0.393,0.875-0.875V4.875C24,4.391,23.609,4,23.125,4z M21,14.66l-1.523-2.666c0,0-0.973-0.998-1.941-0.998
			s-1.908,0.998-1.908,0.998s-2.635,3.01-3.629,4.002c1.604,0.684,4.029,4.631,2.174,3.453c-1.852-1.178-5.1-2.457-5.1-2.457L4,21V6
			h17V14.66z M5,10c0-1.102,0.896-2.002,1.998-2.002s1.996,0.896,1.996,1.998S8.1,11.992,6.998,11.992S5,11.102,5,10z"/>
	</g>
</g>
</svg>
