<?xml version="1.0" encoding="utf-8"?>
<!-- Generator: Adobe Illustrator 16.0.3, SVG Export Plug-In . SVG Version: 6.00 Build 0)  -->
<!DOCTYPE svg PUBLIC "-//W3C//DTD SVG 1.1//EN" "http://www.w3.org/Graphics/SVG/1.1/DTD/svg11.dtd">
<svg version="1.1" id="Layer_1" xmlns="http://www.w3.org/2000/svg" xmlns:xlink="http://www.w3.org/1999/xlink" x="0px" y="0px"
	 width="26px" height="26px" viewBox="0 0 26 26" enable-background="new 0 0 26 26" xml:space="preserve">
<g>
	<g opacity="0.33">
		<path d="M20.5,11H21v13.5c0,0.277-0.225,0.5-0.5,0.5h-16C4.225,25,4,24.777,4,24.5v-21C4,3.227,4.225,3,4.5,3H14v0.5v6v1
			c0,0.277,0.225,0.5,0.5,0.5h1H20.5z M20.646,8.648l-5.293-5.293L15,3v0.5V6v2.5C15,8.777,15.225,9,15.5,9H18h2.5H21L20.646,8.648z
			"/>
	</g>
	<g>
		<path fill="#CCCCCC" d="M20.5,10H21v13.5c0,0.277-0.225,0.5-0.5,0.5h-16C4.225,24,4,23.777,4,23.5v-21C4,2.227,4.225,2,4.5,2H14
			v0.5v6v1c0,0.277,0.225,0.5,0.5,0.5h1H20.5z M20.646,7.648l-5.293-5.293L15,2v0.5V5v2.5C15,7.777,15.225,8,15.5,8H18h2.5H21
			L20.646,7.648z"/>
	</g>
</g>
</svg>
