<?xml version="1.0" encoding="utf-8"?>
<!-- Generator: Adobe Illustrator 16.0.3, SVG Export Plug-In . SVG Version: 6.00 Build 0)  -->
<!DOCTYPE svg PUBLIC "-//W3C//DTD SVG 1.1//EN" "http://www.w3.org/Graphics/SVG/1.1/DTD/svg11.dtd">
<svg version="1.1" id="Layer_1" xmlns="http://www.w3.org/2000/svg" xmlns:xlink="http://www.w3.org/1999/xlink" x="0px" y="0px"
	 width="26px" height="26px" viewBox="0 0 26 26" enable-background="new 0 0 26 26" xml:space="preserve">
<g>
	<g opacity="0.4">
		<path d="M13.469,23.904L1.793,14.867c-0.242-0.188-0.246-0.496-0.002-0.686l11.678-9.035c0.244-0.189,0.453-0.094,0.453,0.215
			v5.805h9.508c0.309,0,0.57,0.264,0.57,0.57v5.574c0,0.309-0.262,0.574-0.57,0.574h-9.508v5.803
			C13.922,23.994,13.711,24.092,13.469,23.904z"/>
	</g>
	<g>
		<path fill="#CCCCCC" d="M13.469,22.904L1.793,13.867c-0.242-0.188-0.246-0.496-0.002-0.686l11.678-9.035
			c0.244-0.189,0.453-0.094,0.453,0.215v5.805h9.508c0.309,0,0.57,0.264,0.57,0.57v5.574c0,0.309-0.262,0.574-0.57,0.574h-9.508
			v5.803C13.922,22.994,13.711,23.092,13.469,22.904z"/>
	</g>
</g>
</svg>
