<?xml version="1.0" encoding="utf-8"?>
<!-- Generator: Adobe Illustrator 16.0.0, SVG Export Plug-In . SVG Version: 6.00 Build 0)  -->
<!DOCTYPE svg PUBLIC "-//W3C//DTD SVG 1.1//EN" "http://www.w3.org/Graphics/SVG/1.1/DTD/svg11.dtd">
<svg version="1.1" id="Layer_1" xmlns="http://www.w3.org/2000/svg" xmlns:xlink="http://www.w3.org/1999/xlink" x="0px" y="0px"
	 width="151px" height="31px" viewBox="0 0 151 31" enable-background="new 0 0 151 31" xml:space="preserve">
<g>
	<g>
		<g>
			<path d="M35.237,18.14V25.8c0,2.868,0.326,4.185,3.23,4.185v0.272H27.276v-0.272c3.321,0,2.93-3.561,2.93-6.427v-8.176
				c0-2.865,0.594-8.535-2.733-8.535V6.569h10.722v0.277c-2.763,0-2.957,1.678-2.957,4.542v6.007l0.479,0.027
				c4.479-4.468,4.98-5.258,5.291-5.754c2.242-3.645,0.121-4.726-1.116-4.726V6.538h9.13v0.405c-1.558,0-4.492,2.425-6.228,3.838
				l-6.727,6.758c9.181,0.435,8.982,5.218,10.009,8.787c0.578,2.013,0.953,3.263,3.157,3.69v0.24c0,0-8.18,0.009-8.18,0
				C39.804,23.321,39.209,17.544,35.237,18.14z"/>
		</g>
		<path d="M56.896,19.116c0,3.281,0.529,4.203,2.439,4.203v0.239h-9.53v-0.239c1.944,0,2.097-2.255,2.097-4.203v-8.631
			c0-2.282-0.48-3.525-2.426-3.525V6.547h7.42V19.116z"/>
		<path d="M54.318,0.199c1.451,0,2.656,1.202,2.656,2.651c0,1.452-1.205,2.654-2.656,2.654c-1.448,0-2.652-1.202-2.652-2.654
			C51.666,1.401,52.87,0.199,54.318,0.199z"/>
		<path d="M66.842,8.65c1.663-2.395,2.792-2.448,4.705-2.448c4.552,0,4.933,3.486,4.933,6.442l0.013,6.472
			c0,3.182,0.331,4.203,2.102,4.203v0.239H69.53v-0.239c1.587,0,1.587-1.385,1.587-4.203v-6.581c0-2.371,0.261-5.35-1.554-5.35
			c-2.081,0-2.16,1.661-2.722,2.616v9.314c0,2.786,0.164,4.203,1.756,4.203v0.239h-8.9v-0.239c1.767,0,2.066-1.483,2.066-4.203
			v-8.631c0-2.381-0.432-3.529-2.379-3.529V6.547h7.457V8.65z"/>
		<path d="M113.962,6.547h3.495l-0.593,1.189h-2.902v10.214c0,5.138,2.975,4.71,4.219,3.594l0.068,0.321
			c-2.667,2.149-4.482,1.689-5.16,1.689c-2.584,0-4.201-1.819-4.201-4.262V7.736h-2.884V7.596c2.25-0.778,5.948-3.782,7.658-6.278
			h0.3V6.547z"/>
		<path d="M116.406,15.228c0-4.086,3.666-9.026,8.167-9.026c4.109,0,8.035,4.377,8.035,8.729c0,5.122-4.422,8.926-8.035,8.926
			C120.167,23.856,116.406,19.92,116.406,15.228z M127.448,14.766c0-5.167-0.181-8.219-2.875-8.219
			c-2.953,0-2.743,3.938-2.743,8.219c0,5.165-0.012,8.779,2.743,8.779C127.66,23.545,127.448,19.931,127.448,14.766z"/>
		<path d="M138.936,8.65c1.668-2.395,2.794-2.448,4.704-2.448c4.552,0,4.938,3.486,4.938,6.442l0.013,6.472
			c0,3.182,0.33,4.203,2.101,4.203v0.239h-9.069v-0.239c1.594,0,1.594-1.385,1.594-4.203v-6.581c0-2.371,0.258-5.35-1.557-5.35
			c-2.077,0-2.158,1.661-2.723,2.616v9.314c0,2.786,0.168,4.203,1.756,4.203v0.239h-8.902v-0.239c1.774,0,2.067-1.483,2.067-4.203
			v-8.631c0-2.381-0.428-3.529-2.375-3.529V6.547h7.454V8.65z"/>
		<path d="M87.311,20.96c-0.519,0.678-1.252,2.884-3.996,2.884c-3.184,0-5.584-2.899-5.584-8.682c0-4.705,3.024-8.881,6.503-8.881
			c2.462,0,3.412,2.201,3.412,2.201V6.687h7.598v0.369c0,0-2.497-0.503-2.497,3.07v13.101c-0.243,3.559-1.794,6.001-7.948,7.736
			l0.042-0.41C88.377,27.974,87.621,24.244,87.311,20.96z M87.751,14.358c0-3.844-0.29-7.595-2.764-7.595
			c-1.723,0-2.167,3.025-2.167,8.5c0,4.599,0.383,7.673,2.136,7.673c1.54,0,2.795-3.486,2.795-7.194V14.358z"/>
		<path d="M93.624,18.129h2.434c-0.33,5.322,3.376,5.329,4.269,5.329c1.609,0,3.071-1.266,3.071-2.675
			c0-4.329-9.018-2.48-9.018-9.057c0-2.986,2.271-5.479,5.672-5.479c5.513,0,6.154,3.311,6.154,4.463h-2.059
			c0.195-0.823-0.147-4.219-3.65-4.219c-2.862,0-2.75,2.339-2.75,2.499c0,4.199,9.756,2.678,9.756,8.865
			c0,3.123-2.63,5.727-6.162,5.922C95.233,24.111,93.624,19.69,93.624,18.129z"/>
		<path d="M146.855,5.107c0-0.963,0.786-1.754,1.764-1.754c0.97,0,1.758,0.791,1.758,1.754c0,0.978-0.788,1.769-1.758,1.769
			C147.642,6.876,146.855,6.085,146.855,5.107z M150.096,5.107c0-0.852-0.622-1.523-1.477-1.523c-0.858,0-1.49,0.671-1.49,1.523
			c0,0.866,0.632,1.534,1.49,1.534C149.474,6.642,150.096,5.974,150.096,5.107z M149.496,6.093h-0.289l-0.563-0.903h-0.438v0.903
			h-0.244V4.129h0.86c0.52,0,0.695,0.195,0.695,0.519c0,0.387-0.268,0.529-0.615,0.542L149.496,6.093z M148.572,4.998
			c0.277,0,0.688,0.045,0.688-0.353c0-0.31-0.254-0.345-0.493-0.345h-0.562v0.698H148.572z"/>
		<path d="M50.384,24.908h4.304v0.629h-1.788v4.675h-0.73v-4.675h-1.785V24.908z"/>
		<path d="M60.144,30.211v-5.304h3.868v0.647h-3.167v1.61h2.926v0.615h-2.926v1.794h3.221v0.636H60.144z"/>
		<path d="M71.974,24.763c0.669,0,1.191,0.177,1.562,0.53c0.372,0.354,0.576,0.756,0.617,1.207h-0.698
			c-0.081-0.343-0.238-0.613-0.476-0.815c-0.237-0.197-0.569-0.298-0.996-0.298c-0.526,0-0.946,0.183-1.269,0.549
			c-0.321,0.368-0.482,0.931-0.482,1.689c0,0.621,0.146,1.125,0.436,1.514c0.29,0.384,0.722,0.578,1.298,0.578
			c0.533,0,0.934-0.204,1.212-0.612c0.145-0.214,0.259-0.496,0.327-0.844h0.699c-0.062,0.557-0.27,1.025-0.622,1.404
			c-0.419,0.454-0.986,0.682-1.703,0.682c-0.614,0-1.135-0.187-1.55-0.56c-0.555-0.494-0.83-1.256-0.83-2.286
			c0-0.781,0.208-1.422,0.621-1.924C70.573,25.037,71.185,24.763,71.974,24.763z"/>
		<path d="M79.825,30.211v-5.304h0.729v2.191h2.758v-2.191h0.726v5.304h-0.726v-2.483h-2.758v2.483H79.825z"/>
		<path d="M92.982,30.211v-5.304h0.847l2.682,4.292v-4.292h0.681v5.304h-0.804l-2.719-4.294v4.294H92.982z"/>
		<path d="M104.558,29.119c-0.297-0.402-0.447-0.901-0.447-1.486c0-0.733,0.173-1.29,0.521-1.666
			c0.347-0.379,0.797-0.564,1.343-0.564c0.568,0,1.012,0.19,1.338,0.57c0.328,0.379,0.491,0.881,0.491,1.504
			c0,0.59-0.142,1.113-0.426,1.567c-0.281,0.455-0.739,0.679-1.372,0.679C105.335,29.722,104.855,29.523,104.558,29.119z
			 M103.904,25.745c-0.354,0.51-0.537,1.125-0.537,1.842c0,0.792,0.209,1.45,0.626,1.969c0.466,0.539,1.108,0.81,1.927,0.81
			c0.871,0,1.543-0.309,2.016-0.925c0.405-0.524,0.604-1.179,0.604-1.973c0-0.734-0.175-1.333-0.53-1.803
			c-0.447-0.6-1.142-0.901-2.077-0.901C105.036,24.763,104.36,25.088,103.904,25.745z"/>
		<path d="M114.719,30.211v-5.304h0.718v4.667h2.684v0.636H114.719z"/>
		<path d="M124.917,29.119c-0.297-0.402-0.447-0.901-0.447-1.486c0-0.733,0.178-1.29,0.521-1.666
			c0.35-0.379,0.793-0.564,1.346-0.564c0.566,0,1.011,0.19,1.337,0.57c0.328,0.379,0.489,0.881,0.489,1.504
			c0,0.59-0.141,1.113-0.427,1.567c-0.283,0.455-0.741,0.679-1.37,0.679C125.694,29.722,125.217,29.523,124.917,29.119z
			 M124.262,25.745c-0.355,0.51-0.534,1.125-0.534,1.842c0,0.792,0.21,1.45,0.625,1.969c0.465,0.539,1.106,0.81,1.923,0.81
			c0.875,0,1.549-0.309,2.021-0.925c0.397-0.524,0.6-1.179,0.6-1.973c0-0.734-0.173-1.333-0.526-1.803
			c-0.45-0.6-1.145-0.901-2.08-0.901C125.396,24.763,124.72,25.088,124.262,25.745z"/>
		<path d="M137.368,24.768c0.5,0,0.93,0.098,1.292,0.292c0.529,0.277,0.847,0.759,0.969,1.455h-0.711
			c-0.087-0.389-0.268-0.67-0.54-0.848c-0.271-0.176-0.613-0.265-1.029-0.265c-0.49,0-0.901,0.183-1.239,0.551
			c-0.339,0.368-0.503,0.917-0.503,1.648c0,0.628,0.138,1.144,0.417,1.54c0.276,0.396,0.729,0.594,1.353,0.594
			c0.479,0,0.877-0.141,1.189-0.418c0.315-0.278,0.473-0.728,0.483-1.349h-1.662v-0.595h2.33v2.839h-0.464l-0.173-0.684
			c-0.245,0.266-0.46,0.454-0.646,0.555c-0.316,0.18-0.718,0.269-1.2,0.269c-0.631,0-1.171-0.205-1.623-0.611
			c-0.493-0.511-0.739-1.21-0.739-2.102c0-0.887,0.239-1.593,0.721-2.119C136.049,25.019,136.645,24.768,137.368,24.768z"/>
		<path d="M147.597,28.073l-2.006-3.165h0.835l1.527,2.548l1.521-2.548h0.842l-2.002,3.165v2.139h-0.718V28.073z"/>
	</g>
</g>
<g>
	<path d="M1.689,4.997C1.585,4.571,1.445,3.555,1.445,3.555C1.249,2.728,1.66,2.502,1.66,2.502s3.725-1.945,10.582-2.116
		c2.064-0.052,5.648-0.115,9.23,1.102c0.241,0.099,0.303,0.288,0.396,0.644c0.12,0.444,0.176,0.837,0.228,1.23
		c0.133,0.919,0.167,1.446,0.141,1.958c-0.022,0.366-0.429,1.01-0.444,1.192c-0.059,0.627,0.175,3.068,0.086,4.262
		c-0.088,1.195-0.552,5.202-1.507,7.828c-1.013,2.771-2.757,2.32-3.643,2.32l4.184,9.388L0.491,30.292l3.021-16.354
		c0,0,0.047-0.413-0.32-0.643c-0.811-0.505-1.464-1.311-1.464-1.311S1.315,11.518,0.85,8.834c0,0-0.392-2.523,0.044-3.074
		c0.202-0.256,0.688-0.505,0.833-0.592L1.689,4.997z"/>
	<path fill="#DC2828" d="M18.022,9.24l-1.298-0.31c0,0-0.331-0.008-0.42,0.169c-0.088,0.178-0.346,1.181-0.346,1.181
		s-0.018,0.077,0.048,0.142c0.068,0.068,3.203,2.335,3.203,2.335s-2.638-0.25-3.459-0.051c-0.817,0.198-2.447,1.062-3.509,1.238
		c-1.062,0.179-4.97,0.597-5.213,0.62L5.48,7.854c0,0-0.207-1.652-1.911-1.601C2.286,6.293,2.086,6.627,2.021,6.77
		c-0.126,0.274,0,0.517,0,0.517l4.233,7.175c0,0-2.846-1.385-3.975-2.89C1.66,10.745,1.092,6.77,1.506,6.098
		c0.368-0.599,2.683-1.084,3.665-0.979c0.477,0.091,0.9,0.542,1.186,0.876c0.089,0.104,0.14,0.046,0.208,0.157
		c0,0-0.256-1.534-1.242-1.603c-1.419-0.094-2.94,0.417-2.94,0.417S2.269,4.952,2.22,4.792c-0.069-0.224-0.223-1.56-0.223-1.56
		s0.06-0.275,0.282-0.385c0,0,3.999-1.881,10.014-1.858c0.709,0.002,6.359-0.088,9.033,1.083c0.239,0.188,0.084,1.089-0.033,1.599
		c-0.094,0.39-0.463,0.484-0.463,0.484c-0.414,0.104-0.587,0.447-0.587,0.447s0.575,5.353,0.618,5.574
		c0.045,0.221-0.155,0.258-0.709,0.295c-0.241,0.017-3.108,0.066-3.108,0.066s-0.595-0.059-0.572-0.413
		c0.018-0.259,0.106-0.741,0.26-0.741c0.156,0,0.552,0,0.552,0S18.446,9.383,18.022,9.24z"/>
	<path fill="#DC2828" d="M13.797,13.958c0,0,2.746-0.507,5.621,0.245c0,0,0.614,0.511,0.55,0.929
		C19.968,15.131,15.544,15.373,13.797,13.958z"/>
	<path fill="#DC2828" d="M13.893,18.745c0,0,0.774-3.355,5.939-2.889c0,0,0.354,0.289-0.644,1.29
		C17.999,18.334,15.818,19.236,13.893,18.745z"/>
	<path d="M12.863,2.656c0,0,0.568-0.127,2.838,0.396c1.18,0.273,1.812,0.537,2.121,0.641c0.135,0.044,0.123,0.37,0.046,0.392
		c-0.154,0.045-3.056-0.932-4.707-0.897c0,0-1.953,0.794-4.274,2.807c0,0-0.502,0.089-0.724,0C8.164,5.995,10.281,3.74,12.863,2.656
		z"/>
	<path d="M10.848,5.944c0,0,1.859-0.95,2.788-1.171c0.928-0.221,1.717-0.326,2.137-0.215c0.425,0.111,0.888,1.24,0.909,1.437
		c0,0-1.395,0.671-2.72,0.533C12.812,6.408,11.56,6.259,10.848,5.944z"/>
	<path fill="#DC2828" d="M21.43,4.414c0.249,0.038,0.235,0.064,0.4,0.199c0.16,0.134,0.119,0.468,0.014,0.576
		c-0.106,0.106-0.208-0.104-1.019-0.081C20.825,5.108,21.191,4.377,21.43,4.414z"/>
	<polygon fill="#DC2828" points="4.201,13.983 6.099,15.288 9.247,29.706 1.246,29.706 	"/>
	<path fill="#DC2828" d="M8.815,21.058c0,0,3.891,2.437,4.511,3.314l0.412,5.369h-2.83L8.815,21.058z"/>
	<path fill="#DC2828" d="M15.442,25.974c0,0,2.271,2.115,2.942,3.768h-3.821L15.442,25.974z"/>
	<path fill="#FFFFFF" d="M18.654,4.854c0,0,0.247-0.075,0.306,0.189c0.28,1.301,0.658,4.136,0.658,4.35
		c0,0.41-0.43,0.066-0.43,0.066L18.654,4.854z"/>
	<path fill="#FFFFFF" d="M10.474,1.045c0,0,0.089-0.027,0.25-0.022c0.047,0.001,1.251,2.045,1.251,2.045
		c-0.027,0.025-0.441,0.254-0.506,0.3L10.474,1.045z"/>
	<path fill="#FFFFFF" d="M5.48,7.854c0,0-0.438-1.308,0.446-1.513C6.814,6.136,7.975,6,9.339,6.069c0,0-2.252,0.432-2.935,0.705
		C5.724,7.046,5.48,7.854,5.48,7.854z"/>
</g>
</svg>
